<?xml version="1.0" standalone="no"?>
<!DOCTYPE svg PUBLIC "-//W3C//DTD SVG 20010904//EN"
 "http://www.w3.org/TR/2001/REC-SVG-20010904/DTD/svg10.dtd">
<svg version="1.0" xmlns="http://www.w3.org/2000/svg"
 width="1500.000000pt" height="1500.000000pt" viewBox="0 0 1500.000000 1500.000000"
 preserveAspectRatio="xMidYMid meet">
<metadata>
Created by potrace 1.11, written by Peter Selinger 2001-2013
</metadata>
<g transform="translate(0.000000,1500.000000) scale(0.100000,-0.100000)"
fill="#000000" stroke="none">
<path d="M2 7500 l3 -6115 1215 0 1215 0 5 3550 5 3550 65 -115 c36 -63 70
-122 75 -132 6 -9 20 -34 31 -55 12 -21 66 -117 121 -213 55 -96 111 -195 125
-220 14 -25 51 -90 83 -145 32 -55 72 -125 88 -155 16 -30 33 -59 37 -65 4 -5
19 -30 32 -55 14 -25 90 -157 168 -295 78 -137 154 -270 168 -295 13 -25 40
-72 60 -105 19 -33 46 -80 60 -105 14 -25 60 -106 102 -180 42 -74 88 -155
102 -180 14 -25 115 -202 225 -395 110 -192 220 -386 245 -430 25 -44 54 -96
65 -115 36 -63 83 -145 93 -160 5 -8 18 -31 28 -50 17 -31 305 -538 940 -1652
100 -175 193 -339 208 -365 14 -26 29 -52 34 -58 4 -5 21 -35 37 -65 17 -30
53 -95 82 -144 28 -49 51 -90 51 -92 0 -1 19 -35 43 -76 24 -40 46 -80 50 -88
4 -8 15 -28 26 -45 19 -32 247 -430 289 -505 14 -25 43 -76 65 -115 22 -38 59
-104 82 -145 24 -41 66 -115 94 -165 28 -49 55 -97 60 -105 7 -13 131 -15
1016 -15 l1009 0 154 270 c230 403 616 1083 647 1140 15 28 31 55 35 60 4 6
18 28 30 50 12 22 95 168 185 325 89 157 173 305 187 330 14 25 50 88 80 140
30 52 66 116 81 142 14 26 70 125 125 220 54 95 110 193 124 218 14 25 95 167
180 315 85 149 157 277 161 285 4 8 13 24 20 35 7 11 41 70 75 130 35 61 67
117 72 125 18 29 323 566 358 630 19 36 43 77 54 92 10 14 18 29 18 32 0 4 11
23 23 44 13 20 38 62 54 92 17 30 68 120 114 200 106 186 132 234 165 295 15
28 30 52 35 53 5 2 9 7 9 12 0 5 25 51 55 104 30 52 55 98 55 101 0 4 8 19 19
33 10 15 58 97 106 182 123 217 106 188 434 763 164 287 317 557 341 600 23
43 45 76 47 73 3 -2 5 -1598 5 -3545 0 -2651 3 -3541 12 -3543 6 -2 556 -4
1221 -4 l1210 1 0 6115 0 6115 -1178 0 c-775 0 -1181 -3 -1186 -10 -5 -5 -25
-41 -46 -80 -21 -38 -41 -74 -45 -80 -4 -5 -19 -31 -34 -57 -14 -27 -38 -69
-52 -95 -15 -27 -30 -52 -34 -58 -4 -5 -19 -30 -32 -55 -27 -49 -169 -299
-364 -641 -67 -119 -133 -233 -145 -255 -12 -21 -32 -57 -44 -79 -13 -22 -93
-163 -179 -314 -86 -151 -156 -278 -156 -282 0 -5 -4 -9 -10 -9 -5 0 -10 -5
-10 -11 0 -5 -26 -56 -59 -112 -32 -56 -69 -120 -81 -142 -12 -22 -68 -121
-125 -220 -56 -99 -169 -297 -250 -440 -82 -143 -156 -273 -167 -290 -10 -16
-21 -37 -24 -45 -4 -8 -40 -71 -79 -140 -40 -69 -83 -145 -97 -170 -38 -69
-315 -557 -354 -623 -19 -32 -34 -61 -34 -64 0 -3 -8 -17 -19 -31 -10 -15 -33
-54 -51 -87 -18 -33 -97 -172 -175 -310 -79 -137 -155 -272 -171 -300 -15 -27
-58 -103 -96 -169 -37 -65 -68 -121 -68 -124 0 -3 -6 -13 -14 -21 -7 -9 -31
-50 -54 -91 -46 -86 -217 -388 -232 -410 -6 -8 -13 -22 -17 -30 -4 -8 -20 -37
-36 -65 -16 -27 -78 -136 -138 -242 -60 -106 -117 -207 -128 -225 -98 -172
-131 -231 -131 -235 0 -2 -8 -16 -19 -31 -10 -15 -50 -83 -89 -152 -38 -69
-135 -240 -215 -380 -79 -140 -154 -271 -165 -290 -10 -19 -46 -82 -79 -140
-33 -58 -71 -125 -85 -150 -14 -25 -48 -85 -77 -134 -28 -49 -51 -90 -51 -92
0 -2 -18 -33 -40 -69 -22 -36 -40 -67 -40 -69 0 -4 -31 -60 -118 -210 -29 -49
-52 -90 -52 -91 0 -1 -29 -53 -65 -114 -36 -62 -65 -115 -65 -117 0 -3 -8 -18
-18 -32 -11 -15 -33 -52 -49 -82 -41 -74 -143 -254 -147 -257 -3 -3 -375 646
-461 802 -15 28 -31 55 -35 60 -4 6 -20 33 -36 60 -15 28 -36 64 -46 80 -10
17 -21 37 -25 45 -3 8 -36 67 -73 130 -37 63 -78 135 -92 160 -22 39 -317 557
-369 648 -44 76 -64 110 -92 162 -16 30 -33 60 -37 65 -4 6 -18 30 -32 55 -63
114 -92 165 -98 170 -3 3 -11 16 -17 30 -7 14 -25 48 -41 75 -56 97 -509 891
-534 935 -50 90 -139 245 -148 260 -5 8 -24 42 -43 75 -18 33 -96 170 -174
305 -159 277 -398 696 -483 845 -97 172 -109 193 -287 504 -95 167 -173 305
-173 307 0 2 -16 28 -35 58 -19 30 -35 57 -35 60 0 3 -14 29 -31 58 -18 29
-43 73 -57 98 -14 25 -87 153 -162 285 -76 132 -147 256 -158 276 -11 20 -75
133 -143 250 -67 118 -133 234 -147 259 -14 25 -187 329 -385 675 -198 347
-371 650 -385 674 -14 25 -37 65 -52 90 -14 26 -29 53 -33 61 -3 8 -57 103
-120 210 l-113 195 -1177 0 -1177 0 2 -6115z"/>
</g>
</svg>
