<?xml version="1.0" encoding="utf-8"?>
<!-- Generator: Adobe Illustrator 19.0.0, SVG Export Plug-In . SVG Version: 6.00 Build 0)  -->
<svg version="1.1" id="Layer_1" xmlns="http://www.w3.org/2000/svg" xmlns:xlink="http://www.w3.org/1999/xlink" x="0px" y="0px"
	 viewBox="-420 361 455 575" style="enable-background:new -420 361 455 575;" xml:space="preserve">
<style type="text/css">
	.st0{fill:#FFFFFF;}
</style>
<g>
	<g>
		<polygon class="st0" points="-210.9,836.8 -50.1,836.8 -5.6,809.4 -166.4,809.4 		"/>
		<polygon class="st0" points="-16.5,789.4 -16.5,488.5 -166.4,488.5 -210.9,515.9 -63.6,515.9 -63.6,789.4 		"/>
		<polygon class="st0" points="-165,472.5 -165,475.4 -165,476.2 -165,484.5 -12.5,484.5 -12.5,793.4 -165,793.4 -165,796.2 
			-165,797.1 -165,805.4 -0.5,805.4 -0.5,472.5 		"/>
		<polygon class="st0" points="-169,477.8 -216,506.7 -216,514.3 -216,514.3 -169,485.4 		"/>
		<polygon class="st0" points="-169,798.7 -216,827.6 -216,835.2 -169,806.3 		"/>
		<polygon class="st0" points="-176.3,476.2 -180.1,476.2 -317.4,476.2 -317.4,503.6 -220,503.6 -218.6,503.6 -218,503.3 
			-174.1,476.2 		"/>
		<polygon class="st0" points="-176.3,797.1 -180.1,797.1 -337.4,797.1 -337.4,461.8 -384.5,490.7 -384.5,824.5 -220,824.5 
			-218.6,824.5 -218,824.2 -174.1,797.1 		"/>
		<polygon class="st0" points="-169.8,793.1 -169,793.1 -169,792.6 -169,790.3 -169,789.4 -169,789.4 -169,781.1 -321.4,781.1 
			-321.4,472.2 -173.6,472.2 -169.8,472.2 -169,472.2 -169,471.7 -169,469.4 -169,468.5 -169,460.2 -333.4,460.2 -333.4,793.1 
			-173.6,793.1 		"/>
	</g>
	<g>
		<g>
			<polygon class="st0" points="-227.6,590.8 -218.4,590.8 -218.4,585.3 -243.1,585.3 -243.1,590.8 -233.9,590.8 -233.9,599.2 
				-227.6,599.2 			"/>
			<polygon class="st0" points="-171.2,585.3 -177.4,585.3 -177.4,596.4 -189.7,596.4 -189.7,585.3 -196,585.3 -196,599.2 
				-171.2,599.2 			"/>
			<polygon class="st0" points="-138.6,596.4 -148.4,596.4 -148.4,590.8 -137.1,590.8 -137.1,585.3 -154.7,585.3 -154.7,599.2 
				-138.6,599.2 			"/>
			<rect x="-231.6" y="599.2" class="st0" width="6.3" height="14.7"/>
			<polygon class="st0" points="-192,613.9 -192,601.9 -179.7,601.9 -179.7,613.9 -173.4,613.9 -173.4,599.2 -198.3,599.2 
				-198.3,613.9 			"/>
			<polygon class="st0" points="-134.4,613.9 -134.4,608.4 -146.2,608.4 -146.2,601.6 -136.4,601.6 -136.4,599.2 -152.4,599.2 
				-152.4,613.9 			"/>
			<rect x="-188.3" y="646.9" class="st0" width="6.3" height="14.3"/>
			<path class="st0" d="M-143.6,651.2h5v4.3c-1,0.4-2.2,0.6-3.5,0.6c-1.9,0-3.6-0.4-5-1.3c-1.5-0.8-2.5-1.9-3.3-3.3
				c-0.7-1.4-1.1-2.9-1.1-4.6v-0.1h-6.3v0.1c0,2.1,0.4,4,1.2,5.8s1.8,3.3,3.2,4.6c1.4,1.3,3,2.3,4.9,3c1.9,0.7,4,1.1,6.3,1.1
				c1.7,0,3.5-0.2,5.2-0.6c1.7-0.4,3.2-1,4.5-1.7V646h-11v5.2H-143.6z"/>
			<rect x="-190.5" y="632.7" class="st0" width="6.3" height="14.3"/>
			<path class="st0" d="M-146.7,640.5c1.7-1.8,4-2.6,6.9-2.6c1.5,0,3,0.3,4.5,0.8s2.9,1.2,4.1,2.1v-6.3c-2.6-1.4-5.5-2.2-8.7-2.2
				c-2.2,0-4.3,0.4-6.3,1.1c-1.9,0.8-3.6,1.8-5,3.1c-1.4,1.3-2.4,2.9-3.2,4.7c-0.8,1.8-1.1,3.7-1.2,5.7h6.3
				C-149.3,644.4-148.4,642.2-146.7,640.5z"/>
			<path class="st0" d="M-219.8,694.3c0,2.5-0.8,4.7-2.5,6.4c-1.6,1.7-3.7,2.6-6.2,2.6s-4.5-0.9-6.2-2.6c-1.7-1.7-2.5-3.9-2.5-6.4
				c0-0.3,0-0.5,0-0.8h-6.2c0,0.3,0,0.5,0,0.8c0,2.7,0.6,5.2,1.9,7.5c1.3,2.2,3.1,4,5.4,5.3c2.3,1.3,4.8,1.9,7.6,1.9
				s5.3-0.6,7.6-1.9s4.1-3.1,5.4-5.3c1.3-2.2,1.9-4.7,1.9-7.5c0-0.3,0-0.5,0-0.8h-6.3C-219.8,693.7-219.8,694-219.8,694.3z"/>
			<path class="st0" d="M-178.9,698.8L-178.9,698.8c-1.5-2-2.8-3.7-4-5.3h-7.1c0.9,1.3,1.8,2.5,2.6,3.5l8.5,11.5h5.9v-15h-6
				C-178.9,695-178.9,696.8-178.9,698.8z"/>
			<path class="st0" d="M-198.8,708.5h6v-10.6c0-0.7,0-2.1,0-4.4h-6V708.5z"/>
			<polygon class="st0" points="-136.4,696.3 -136.4,693.5 -152.4,693.5 -152.4,708.5 -134.4,708.5 -134.4,703 -146.2,703 
				-146.2,696.3 			"/>
			<path class="st0" d="M-223.1,681.5c-2.3-1.3-4.8-1.9-7.6-1.9s-5.3,0.6-7.6,1.9s-4.1,3.1-5.4,5.3c-1.2,2-1.8,4.3-1.9,6.7h6.2
				c0.2-2.2,1-4.1,2.5-5.6c1.7-1.7,3.7-2.6,6.2-2.6s4.5,0.9,6.2,2.6c1.5,1.6,2.3,3.4,2.4,5.7h6.3c-0.1-2.4-0.7-4.7-1.9-6.7
				C-219.1,684.5-220.9,682.8-223.1,681.5z"/>
			<path class="st0" d="M-176.7,680v10.6c0,0.8,0,1.8,0,2.9h6V680H-176.7z"/>
			<path class="st0" d="M-182,691.5l-8.6-11.5h-5.9v13.5h6c0-1.1,0-2.4-0.1-3.8h0.1c1,1.4,1.9,2.7,2.8,3.9h7.1
				C-181.1,692.8-181.6,692.1-182,691.5z"/>
			<polygon class="st0" points="-138.6,691.1 -148.4,691.1 -148.4,685.5 -137.1,685.5 -137.1,680 -154.7,680 -154.7,693.5 
				-138.6,693.5 			"/>
		</g>
		<g>
			<path class="st0" d="M-237.8,645.6v15.6h8.5c4.3,0,7.5-0.8,9.7-2.3s3.2-3.6,3.2-6.4c0-1.7-0.5-3.2-1.4-4.3
				c-0.9-1.2-2.3-2-4.1-2.6l0,0L-237.8,645.6L-237.8,645.6z M-223.2,654.3c-0.4,0.5-1,0.9-2,1.1c-1,0.2-2.3,0.4-4,0.4h-2.3v-7.1h3.7
				c3.4,0,5.1,1.2,5.1,3.5C-222.7,653.1-222.9,653.8-223.2,654.3z"/>
			<path class="st0" d="M-220.1,639.9c0-2.4-1-4.2-2.9-5.4c-1.9-1.2-5-1.8-9-1.8h-8.3v13h16C-221.5,644.6-220.1,642.6-220.1,639.9z
				 M-227.5,643.7c-0.8,0.5-1.8,0.8-3.2,0.8h-3.3V638h1.9c2.1,0,3.6,0.3,4.5,0.8c0.8,0.5,1.3,1.3,1.3,2.5
				C-226.4,642.3-226.8,643.1-227.5,643.7z"/>
		</g>
	</g>
</g>
</svg>
